<svg id="gondola" xmlns="http://www.w3.org/2000/svg" width="40" height="40" viewBox="0 0 40 40">
<path d="m34.8,7.325C31.242,3.142,25.928.5,20,.5S8.758,3.142,5.2,7.325C2.265,10.738.5,15.164.5,20c0,1.336.137,2.642.39,3.9.01.039.019.068.029.107,1.843,8.853,9.682,15.493,19.081,15.493s17.238-6.64,19.081-15.493c.01-.039.02-.068.029-.107.254-1.258.39-2.564.39-3.9,0-4.836-1.765-9.262-4.7-12.675ZM14.638,23.9H2.899c-.302-1.258-.449-2.564-.449-3.9,0-4.992,2.077-9.487,5.421-12.675h6.767v16.575Zm1.95,0V7.325h6.825v16.575h-6.825Zm20.514,0h-11.739V7.325h6.767c3.344,3.188,5.421,7.683,5.421,12.675,0,1.336-.146,2.642-.449,3.9Z" stroke="white" stroke-width="0.4" />
</svg>