<?xml version="1.0" encoding="UTF-8"?><svg id="a" xmlns="http://www.w3.org/2000/svg" width="323.714" height="221.226" viewBox="0 0 323.714 221.226"><path d="m62.519,5.605c23,5,35.331,56.738,46,68,36,38-56,93-10,129,39.17,30.655,30.457-158.106,85.125-175.6,66.875-21.4,8.657,48.343.875,60.6-13.789,21.716-22.654,46.537-19,72,3.209,22.358,25.681,23.359,44,43,35.279,37.824,55.284,4.606,63-2,7.729-6.617,21.493-28.838,22-39,.37-7.411,2.785-42-23-42-19,0-20,67-35,22-2.61-7.831,3-33,18-53,24.276-32.368,50,20,68-25,3.616-9.041-7-40-29-55-8.045-5.485-65-26-92,31-4.161,8.785-1.701,42.898,7,69,11,33-14,33-26.289,51.893-24.129,37.096-17.242,59.046-26.711,60.107-43.353,4.856-22-138-68-87-6.737,7.47-46,79-60,51-4.176-8.352-25.458-20.523-27-56-1-23,38-10,26-54C6.764,2.171,47.36,2.309,62.519,5.605" fill="none" stroke="#b3b3b3" stroke-miterlimit="10"/></svg>