<?xml version="1.0" encoding="UTF-8"?><svg id="a" xmlns="http://www.w3.org/2000/svg" width="786.691" height="231.062" viewBox="0 0 786.691 231.062"><path d="m1.1,159.404C51.078,125.098,72.148,28.003,130.927,3.895c74.737-30.654,12.765,192.036,73.176,201.703,54.687,8.752,52.938-108.955,107.888-108.955,25.33,0,37.282,45.228,41.654,61.203,11.955,43.681,53.533,62.594,70.809,67.201,38.784,10.343,86.556,3.089,110.729-7.33,35.363-15.243,63.503-40.146,79.262-75.603,8.182-18.411,26.211-109.259-43.573-110.207-55.809-.759-59.467,65.699-46.663,98.623,35.934,92.403,261.482,68.427,261.482,68.427V65.27c-96.839-8.862-77.947,90.059-151.913,99.988-33.832,4.542-38.332-88.797-72.349-85.956-32.307,2.698-28.693,115.875-76.594,107.352-18.437-3.281-22.211-82.61-53.312-78.717-46.101,5.771-54.488,95.861-87.581,97.008-99.629,3.453-73.23-152.266-131.477-150.831-41.25,1.016-77.197,61.297-94.478,93.786C76.74,225.447,29.461,222.761.071,224.84" fill="none" stroke="#1479b7" stroke-width="2"/></svg>