<?xml version="1.0" encoding="UTF-8"?><svg id="uuid-ec6ea8aa-a394-40b2-a335-527de9a00075" xmlns="http://www.w3.org/2000/svg" viewBox="0 0 80 80"><path d="m40,0c22.1,0,40,17.9,40,40s-17.9,40-40,40S0,62.1,0,40,17.9,0,40,0" style="fill:#ffdd67; fill-rule:evenodd;"/><path d="m45.1,24.6c-2.9,1.5-7.3,1.5-10.3,0-3.1-1.6-7-2.6-11.5-3-4.5-.4-14-.4-18.7,1.3-.5.2-1.1.4-1.6.7-.3.1-.3.3-.3.8v.7c0,1.3-.2.8.8,1.4,1.8,1.1,2.9,3.9,3.4,7.7.8,5.6,3.6,9.1,8,10.8,4.2,1.6,8.8,1.5,12.9-.1,2.3-.9,4.2-2.3,5.8-4.6,2.8-4,1.9-6.6,3.4-10.1,1.2-3,4.7-3,6,0,1.4,3.5.6,6,3.4,10.1,1.6,2.3,3.6,3.7,5.8,4.6,4.1,1.6,8.8,1.7,12.9.1,4.5-1.7,7.2-5.2,8-10.8.6-3.9,1.6-6.7,3.4-7.7.9-.5.8,0,.8-1.4v-.7c0-.5,0-.7-.3-.8-.5-.3-1.1-.5-1.6-.7-4.7-1.7-14.2-1.7-18.7-1.3-4.6.4-8.4,1.4-11.5,3" style="fill:#494949; fill-rule:evenodd;"/><path d="m56.8,53.7c-10.8,7.5-22.8,7.5-33.6,0-1.3-.9-2.5.7-1.6,2.1,3.3,5.4,9.9,10.2,18.4,10.2s15.1-4.8,18.4-10.2c.9-1.4-.3-3-1.6-2.1Z" style="fill:#664e27;"/></svg>