<svg width="530" height="165" viewBox="0 0 530 165" fill="none" xmlns="http://www.w3.org/2000/svg">
<path d="M1.11345 151.653L0.931249 151.188L6.07967e-06 151.552L0.182206 152.018L0.647827 151.835L1.11345 151.653ZM35.1478 149.835L35.4394 150.241L35.4655 150.223L35.489 150.201L35.1478 149.835ZM137.148 47.8353L136.766 47.5123V47.5123L137.148 47.8353ZM146.648 3.33526L146.971 2.95357L146.648 3.33526ZM119.648 13.8353L120.113 14.0182L119.648 13.8353ZM60.1478 163.836L59.6806 163.658L60.5691 164.105L60.1478 163.836ZM111.648 92.3352L111.335 91.9448L111.648 92.3352ZM146.648 86.3353L147.013 85.9937L146.648 86.3353ZM134.148 151.835L133.734 152.116L134.148 151.835ZM237.648 89.8359L237.189 90.0353L237.648 89.8359ZM202.148 92.3352L201.759 92.0206L202.148 92.3352ZM207.148 154.835L207.299 154.359L207.148 154.835ZM324.648 86.3353L324.247 86.0368L324.648 86.3353ZM356.648 9.33526L357.088 9.09822L356.648 9.33526ZM331.648 9.33526L332.064 9.61262L331.648 9.33526ZM305.148 154.835L305.258 155.323L305.148 154.835ZM425.648 4.33548L425.32 4.71334V4.71334L425.648 4.33548ZM379.648 154.835L379.468 154.369L379.648 154.835ZM486.148 85.3352L485.962 85.7995L486.148 85.3352ZM488.148 133.836L487.742 133.543L488.148 133.836ZM528.554 85.8264C528.825 85.8781 529.087 85.7002 529.139 85.429C529.191 85.1577 529.013 84.8959 528.742 84.8441L528.648 85.3352L528.554 85.8264ZM0.647827 151.835L0.182206 152.018C1.11208 154.394 2.55463 156.378 4.52513 157.78C6.49689 159.183 8.96973 159.984 11.9266 160.035C17.8218 160.138 25.6541 157.267 35.4394 150.241L35.1478 149.835L34.8562 149.429C25.1416 156.404 17.5239 159.133 11.944 159.036C9.16342 158.987 6.89252 158.238 5.1049 156.966C3.31603 155.693 1.98358 153.877 1.11345 151.653L0.647827 151.835ZM35.1478 149.835L35.489 150.201C65.4881 122.202 124.308 63.7834 137.53 48.1582L137.148 47.8353L136.766 47.5123C123.587 63.0871 64.8075 121.469 34.8067 149.47L35.1478 149.835ZM137.148 47.8353L137.53 48.1582C145.812 38.3703 150.617 29.1786 152.139 21.383C153.663 13.5752 151.896 7.12084 146.971 2.95357L146.648 3.33526L146.325 3.71696C150.9 7.58815 152.633 13.6338 151.157 21.1914C149.679 28.7612 144.984 37.8003 136.766 47.5123L137.148 47.8353ZM146.648 3.33526L146.971 2.95357C140.173 -2.79843 124.79 -0.620722 119.182 13.6525L119.648 13.8353L120.113 14.0182C125.506 0.291419 140.123 -1.53104 146.325 3.71696L146.648 3.33526ZM119.648 13.8353L119.182 13.6525C114.787 24.8399 76.181 120.323 59.6806 163.658L60.1478 163.836L60.6151 164.014C77.1146 120.682 115.708 25.2307 120.113 14.0182L119.648 13.8353ZM60.1478 163.836L60.5691 164.105C67.0859 153.912 75.5638 139.572 84.6263 125.988C93.6901 112.403 103.278 99.6718 111.96 92.7257L111.648 92.3352L111.335 91.9448C102.518 98.9987 92.8556 111.852 83.7944 125.433C74.7318 139.017 66.2098 153.426 59.7266 163.567L60.1478 163.836ZM111.648 92.3352L111.96 92.7257C115.515 89.8816 121.764 85.8047 128.316 83.7385C134.878 81.6689 141.587 81.6572 146.283 86.6768L146.648 86.3353L147.013 85.9937C141.922 80.5511 134.714 80.6724 128.015 82.7848C121.306 84.9007 114.948 89.055 111.335 91.9448L111.648 92.3352ZM146.648 86.3353L146.283 86.6768C149.746 90.379 150.206 95.334 148.987 101.035C147.767 106.742 144.888 113.081 141.823 119.43C138.77 125.754 135.53 132.091 133.658 137.716C131.794 143.317 131.215 148.404 133.734 152.116L134.148 151.835L134.562 151.555C132.331 148.267 132.752 143.604 134.607 138.032C136.453 132.486 139.651 126.229 142.723 119.865C145.783 113.527 148.716 107.085 149.965 101.244C151.215 95.399 150.8 90.0415 147.013 85.9937L146.648 86.3353ZM134.148 151.835L133.734 152.116C135.876 155.272 139.36 156.945 143.66 157.495C147.954 158.045 153.11 157.485 158.694 156.134C169.865 153.431 182.876 147.531 194.401 140.766L194.148 140.335L193.895 139.904C182.419 146.639 169.502 152.49 158.459 155.162C152.935 156.498 147.913 157.032 143.787 156.503C139.668 155.976 136.491 154.399 134.562 151.555L134.148 151.835ZM194.148 140.335L194.401 140.766C205.886 134.025 218.989 126.372 228.124 117.889C237.246 109.42 242.59 99.9478 238.106 89.6366L237.648 89.8359L237.189 90.0353C241.402 99.724 236.495 108.752 227.443 117.157C218.405 125.549 205.409 133.145 193.895 139.904L194.148 140.335ZM237.648 89.8359L238.106 89.6366C235.046 82.5976 228.011 80.574 220.814 81.5905C213.622 82.6064 206.096 86.6635 201.759 92.0206L202.148 92.3352L202.536 92.6498C206.7 87.507 213.989 83.5645 220.954 82.5807C227.915 81.5976 234.38 83.5743 237.189 90.0353L237.648 89.8359ZM202.148 92.3352L201.759 92.0206C195.922 99.2316 189.91 112.661 188.986 125.461C188.523 131.868 189.332 138.158 192.114 143.441C194.904 148.737 199.657 152.982 206.997 155.312L207.148 154.835L207.299 154.359C200.197 152.104 195.66 148.027 192.999 142.975C190.331 137.909 189.529 131.822 189.983 125.533C190.893 112.943 196.823 99.7072 202.536 92.6498L202.148 92.3352ZM207.148 154.835L206.997 155.312C215.01 157.856 224.802 156.952 235.334 153.68C245.875 150.405 257.212 144.742 268.35 137.695C290.622 123.605 312.17 103.94 325.049 86.6338L324.648 86.3353L324.247 86.0368C311.451 103.231 289.999 122.816 267.815 136.85C256.725 143.866 245.469 149.484 235.037 152.725C224.597 155.968 215.036 156.815 207.299 154.359L207.148 154.835ZM324.648 86.3353L325.049 86.6338C332.498 76.6238 343.147 62.2182 350.618 47.8683C354.353 40.6934 357.307 33.5089 358.663 26.8769C360.019 20.2479 359.79 14.1162 357.088 9.09822L356.648 9.33526L356.208 9.57231C358.756 14.3044 359.015 20.1692 357.684 26.6765C356.353 33.1808 353.445 40.2724 349.731 47.4065C342.303 61.6747 331.702 76.019 324.247 86.0368L324.648 86.3353ZM356.648 9.33526L357.088 9.09822C353.774 2.94355 348.847 0.569345 343.935 0.961885C339.062 1.35129 334.3 4.45546 331.232 9.05791L331.648 9.33526L332.064 9.61262C334.996 5.21515 339.502 2.31932 344.015 1.95871C348.488 1.60123 353.06 3.72698 356.208 9.57231L356.648 9.33526ZM331.648 9.33526L331.232 9.05791C326.421 16.2737 314.156 40.562 303.099 67.2735C297.568 80.6362 292.333 94.6203 288.48 107.396C284.631 120.16 282.148 131.759 282.148 140.335H282.648H283.148C283.148 131.912 285.594 120.429 289.438 107.684C293.278 94.9513 298.5 81.0001 304.023 67.6559C315.076 40.9538 327.311 16.7421 332.064 9.61262L331.648 9.33526ZM282.648 140.335H282.148C282.148 144.038 282.994 146.984 284.439 149.279C285.884 151.575 287.909 153.19 290.218 154.262C294.819 156.398 300.565 156.385 305.258 155.323L305.148 154.835L305.037 154.348C300.478 155.38 294.974 155.368 290.639 153.355C288.479 152.352 286.613 150.856 285.285 148.746C283.957 146.636 283.148 143.882 283.148 140.335H282.648ZM305.148 154.835L305.258 155.323C311.991 153.799 321.751 148.242 332.765 140.431C343.801 132.604 356.16 122.466 368.107 111.707C380.055 100.948 391.599 89.5615 401.002 79.235C410.396 68.9193 417.684 59.6285 421.092 53.0663L420.648 52.8359L420.204 52.6055C416.861 59.0434 409.65 68.2526 400.263 78.5617C390.885 88.8602 379.365 100.223 367.438 110.964C355.511 121.705 343.182 131.817 332.187 139.615C321.17 147.428 311.555 152.872 305.037 154.348L305.148 154.835ZM420.648 52.8359L421.092 53.0663C427.857 40.0358 431.147 29.5809 431.72 21.4802C432.293 13.3706 430.144 7.57 425.975 3.95763L425.648 4.33548L425.32 4.71334C429.181 8.05895 431.281 13.5085 430.722 21.4096C430.163 29.3197 426.938 39.636 420.204 52.6055L420.648 52.8359ZM425.648 4.33548L425.975 3.95763C422.028 0.536468 416.799 0.581275 411.753 2.88094C406.709 5.1797 401.763 9.75653 398.221 15.576L398.648 15.8359L399.075 16.0959C402.533 10.4155 407.337 5.99228 412.168 3.7909C416.996 1.59043 421.768 1.63495 425.32 4.71334L425.648 4.33548ZM398.648 15.8359L398.221 15.576C396.443 18.496 392.927 26.6673 388.667 37.4965C384.399 48.3468 379.365 61.9152 374.551 75.6703C369.737 89.4248 365.14 103.371 361.746 114.976C360.049 120.778 358.652 126 357.678 130.323C356.706 134.634 356.148 138.087 356.148 140.335H356.648H357.148C357.148 138.208 357.683 134.849 358.653 130.543C359.621 126.248 361.012 121.048 362.706 115.257C366.093 103.675 370.684 89.746 375.495 76.0007C380.305 62.2559 385.335 48.6995 389.598 37.8625C393.869 27.0044 397.352 18.9258 399.075 16.0959L398.648 15.8359ZM356.648 140.335H356.148C356.148 146.721 358.707 151.771 363 154.567C367.29 157.362 373.215 157.845 379.827 155.302L379.648 154.835L379.468 154.369C373.08 156.826 367.506 156.309 363.546 153.729C359.588 151.151 357.148 146.45 357.148 140.335H356.648ZM379.648 154.835L379.827 155.302C394.979 149.474 407.542 134.732 417.84 120.679C420.419 117.159 422.86 113.676 425.167 110.38C427.475 107.083 429.646 103.975 431.69 101.197C433.735 98.4185 435.645 95.981 437.428 94.0235C439.216 92.0611 440.852 90.6082 442.345 89.7722L442.101 89.3359L441.856 88.8997C440.224 89.8137 438.502 91.3595 436.689 93.3501C434.871 95.3456 432.937 97.8154 430.885 100.604C428.832 103.394 426.653 106.512 424.348 109.807C422.041 113.104 419.605 116.578 417.033 120.088C406.73 134.149 394.317 148.657 379.468 154.369L379.648 154.835ZM442.101 89.3359L442.345 89.7722C454.763 82.8181 468.648 78.8738 485.962 85.7995L486.148 85.3352L486.334 84.871C468.648 77.7967 454.438 81.8538 441.856 88.8997L442.101 89.3359ZM486.148 85.3352L485.962 85.7995C488.681 86.8869 490.911 89.3432 492.536 92.7491C494.16 96.151 495.157 100.456 495.43 105.152C495.977 114.549 493.62 125.405 487.742 133.543L488.148 133.836L488.553 134.129C494.592 125.767 496.986 114.672 496.428 105.094C496.149 100.302 495.131 95.8636 493.439 92.3185C491.749 88.7774 489.365 86.0836 486.334 84.871L486.148 85.3352ZM488.148 133.836L487.742 133.543C482.697 140.529 477.615 146.469 471.268 150.669C464.933 154.86 457.308 157.335 447.148 157.335V157.835V158.335C457.488 158.335 465.307 155.811 471.82 151.503C478.32 147.202 483.487 141.143 488.553 134.129L488.148 133.836ZM447.148 157.835V157.335C434.867 157.335 421.148 148.006 421.148 131.335H420.648H420.148C420.148 148.666 434.429 158.335 447.148 158.335V157.835ZM420.648 131.335H421.148C421.148 121.731 425.145 110.37 431.561 100.885C437.981 91.3945 446.76 83.8722 456.253 81.8247L456.148 81.3359L456.042 80.8472C446.2 82.9701 437.229 90.7211 430.733 100.325C424.233 109.933 420.148 121.486 420.148 131.335H420.648ZM456.148 81.3359L456.253 81.8247C481.635 76.3501 506.696 81.655 528.554 85.8264L528.648 85.3352L528.742 84.8441C506.933 80.6821 481.66 75.3217 456.042 80.8472L456.148 81.3359Z" fill="#FF2B00"/>
</svg>
