<svg xmlns="http://www.w3.org/2000/svg" width="370" height="260" viewBox="0 0 370 260">
    <path d="m165.731,142.925c29.663-20.713,38.358-62.201,68.865-86.711,30.322-24.361,107.26-41.807,122.52-33.531,39.992,21.69-25.515,58.35-29.595,60.362-30.541,15.06-113.975,5.261-180.061-14.993-27.628-8.468-99.539-63.352-123.135-15.503-21.025,42.634,19.273,84.58,69.206,64.34,59.114-23.961,112.084-4.758,172.307,10.994,33.289,8.707,114.205,19.277,76.811,47.34-25.189,18.904-90.223,7.721-135.888,1.747C123.677,166.1-5.946,291.142.749,201.323c4.499-60.352,120.425-23.933,164.982-58.398"
          fill="none" stroke="white" stroke-width="1" stroke-dasharray="5"/>
</svg>