<svg xmlns="http://www.w3.org/2000/svg" width="370" height="260" viewBox="0 0 370 260">
    <path d="m167.145,142.925c27.134-20.713,35.088-62.201,62.994-86.711,27.737-24.361,98.116-41.807,112.075-33.531,36.583,21.69-23.34,58.35-27.072,60.362-27.938,15.06-104.259,5.261-164.711-14.993-25.273-8.468-91.053-63.352-112.638-15.503-19.232,42.634,17.63,84.58,63.306,64.34,54.075-23.961,102.529-4.758,157.618,10.994,30.451,8.707,104.469,19.277,70.263,47.34-23.042,18.904-82.531,7.721-124.304,1.747-76-10.869-194.574,114.173-188.448,24.354,4.116-60.352,110.159-23.933,150.917-58.398"
          fill="none" stroke="white" stroke-width="1" stroke-dasharray="5"/>
</svg>