<svg xmlns="http://www.w3.org/2000/svg" width="540" height="260" viewBox="0 0 540 260">
    <path d="m241.751,142.925c43.31-20.713,56.006-62.201,100.549-86.711,44.272-24.361,156.608-41.807,178.889-33.531,58.392,21.69-37.254,58.35-43.212,60.362-44.593,15.06-166.413,5.261-262.904-14.993-40.339-8.468-145.335-63.352-179.788-15.503-30.698,42.634,28.139,84.58,101.046,64.34,86.311-23.961,163.652-4.758,251.582,10.994,48.604,8.707,166.749,19.277,112.151,47.34-36.778,18.904-131.732,7.721-198.408,1.747C180.349,166.1-8.912,291.142.864,201.323c6.569-60.352,175.83-23.933,240.887-58.398"
          fill="none" stroke="white" stroke-width="1" stroke-dasharray="5"/>
</svg>