<svg xmlns="http://www.w3.org/2000/svg" width="790" height="300" viewBox="0 0 790 300">
    <path d="m2.63,209.053C52.632,174.606,73.712,77.114,132.52,52.907c74.773-30.779,12.771,192.822,73.211,202.529,54.714,8.787,52.963-109.401,107.94-109.401,25.342,0,37.3,45.413,41.674,61.454,11.961,43.86,53.559,62.85,70.843,67.476,38.803,10.386,86.598,3.102,110.783-7.36,35.38-15.305,63.534-40.31,79.3-75.913,8.186-18.486,26.224-109.706-43.594-110.659-55.836-.762-59.496,65.968-46.686,99.027,35.952,92.781,261.608,68.707,261.608,68.707V114.533c-96.886-8.899-77.985,90.427-151.986,100.397-33.848,4.56-38.351-89.16-72.384-86.308-32.323,2.709-28.707,116.35-76.631,107.791-18.446-3.294-22.221-82.948-53.338-79.039-46.123,5.794-54.515,96.254-87.623,97.405-99.677,3.467-73.265-152.889-131.541-151.449-41.27,1.02-77.234,61.548-94.523,94.17C78.307,275.366,31.004,272.669,1.6,274.757"
          fill="none" stroke="#1479b7" stroke-miterlimit="10" stroke-width="2"/>
</svg>